<?xml version="1.0" encoding="UTF-8"?>
<svg id="Layer_1" data-name="Layer 1" xmlns="http://www.w3.org/2000/svg" viewBox="0 0 1080 1080">
  <defs>
    <style>
      .cls-1 {
        fill: #b8d433;
      }
    </style>
  </defs>
  <path class="cls-1" d="M983,484.29v-4.45c-1.27-47.33-39.71-85.13-87.35-85.13h-250.94c-48.28,0-87.67,39.07-87.67,87.67s0,1.91,0,2.86v135.95h49.55v-136.27c1.59-21.6,18.74-38.75,40.34-40.34h242.04c24.14,0,43.83,19.69,43.83,43.83v197.57h49.55v-201.38l.64-.32Z"/>
  <path class="cls-1" d="M472.87,459.19v135.32c-1.27,22.55-19.06,40.34-41.61,41.61h-243.95c-21.92-1.59-39.39-19.06-40.66-40.66v-200.43h-49.55v203.29c0,48.28,39.07,87.67,87.67,87.67h250.62c48.28,0,87.67-39.07,87.67-87.67v-138.81h-49.55l-.64-.32Z"/>
</svg>